<mxfile host="app.diagrams.net" modified="2022-03-31T12:59:56.339Z" agent="5.0 (Windows NT 10.0; Win64; x64) AppleWebKit/537.36 (KHTML, like Gecko) Chrome/100.0.4896.60 Safari/537.36" etag="ImUO3uX9D8fQwgrHjLve" version="17.3.0" type="github">
  <diagram id="R2lEEEUBdFMjLlhIrx00" name="Page-1">
    <mxGraphModel dx="1422" dy="768" grid="0" gridSize="10" guides="1" tooltips="1" connect="1" arrows="1" fold="1" page="1" pageScale="1" pageWidth="2339" pageHeight="3300" math="0" shadow="0" extFonts="Permanent Marker^https://fonts.googleapis.com/css?family=Permanent+Marker">
      <root>
        <mxCell id="0" />
        <mxCell id="1" parent="0" />
        <mxCell id="C-vyLk0tnHw3VtMMgP7b-1" value="" style="edgeStyle=entityRelationEdgeStyle;endArrow=ERzeroToMany;startArrow=ERone;endFill=1;startFill=0;" parent="1" source="C-vyLk0tnHw3VtMMgP7b-24" target="C-vyLk0tnHw3VtMMgP7b-6" edge="1">
          <mxGeometry width="100" height="100" relative="1" as="geometry">
            <mxPoint x="340" y="720" as="sourcePoint" />
            <mxPoint x="440" y="620" as="targetPoint" />
          </mxGeometry>
        </mxCell>
        <mxCell id="C-vyLk0tnHw3VtMMgP7b-12" value="" style="edgeStyle=entityRelationEdgeStyle;endArrow=ERzeroToMany;startArrow=ERone;endFill=1;startFill=0;" parent="1" source="C-vyLk0tnHw3VtMMgP7b-3" target="C-vyLk0tnHw3VtMMgP7b-17" edge="1">
          <mxGeometry width="100" height="100" relative="1" as="geometry">
            <mxPoint x="400" y="180" as="sourcePoint" />
            <mxPoint x="460" y="205" as="targetPoint" />
          </mxGeometry>
        </mxCell>
        <mxCell id="C-vyLk0tnHw3VtMMgP7b-2" value="Orders" style="shape=table;startSize=30;container=1;collapsible=1;childLayout=tableLayout;fixedRows=1;rowLines=0;fontStyle=1;align=center;resizeLast=1;" parent="1" vertex="1">
          <mxGeometry x="450" y="120" width="250" height="130" as="geometry" />
        </mxCell>
        <mxCell id="C-vyLk0tnHw3VtMMgP7b-3" value="" style="shape=partialRectangle;collapsible=0;dropTarget=0;pointerEvents=0;fillColor=none;points=[[0,0.5],[1,0.5]];portConstraint=eastwest;top=0;left=0;right=0;bottom=1;" parent="C-vyLk0tnHw3VtMMgP7b-2" vertex="1">
          <mxGeometry y="30" width="250" height="30" as="geometry" />
        </mxCell>
        <mxCell id="C-vyLk0tnHw3VtMMgP7b-4" value="PK" style="shape=partialRectangle;overflow=hidden;connectable=0;fillColor=none;top=0;left=0;bottom=0;right=0;fontStyle=1;" parent="C-vyLk0tnHw3VtMMgP7b-3" vertex="1">
          <mxGeometry width="30" height="30" as="geometry" />
        </mxCell>
        <mxCell id="C-vyLk0tnHw3VtMMgP7b-5" value="order_id int NOT NULL " style="shape=partialRectangle;overflow=hidden;connectable=0;fillColor=none;top=0;left=0;bottom=0;right=0;align=left;spacingLeft=6;fontStyle=5;" parent="C-vyLk0tnHw3VtMMgP7b-3" vertex="1">
          <mxGeometry x="30" width="220" height="30" as="geometry" />
        </mxCell>
        <mxCell id="C-vyLk0tnHw3VtMMgP7b-6" value="" style="shape=partialRectangle;collapsible=0;dropTarget=0;pointerEvents=0;fillColor=none;points=[[0,0.5],[1,0.5]];portConstraint=eastwest;top=0;left=0;right=0;bottom=0;" parent="C-vyLk0tnHw3VtMMgP7b-2" vertex="1">
          <mxGeometry y="60" width="250" height="30" as="geometry" />
        </mxCell>
        <mxCell id="C-vyLk0tnHw3VtMMgP7b-7" value="FK1" style="shape=partialRectangle;overflow=hidden;connectable=0;fillColor=none;top=0;left=0;bottom=0;right=0;" parent="C-vyLk0tnHw3VtMMgP7b-6" vertex="1">
          <mxGeometry width="30" height="30" as="geometry" />
        </mxCell>
        <mxCell id="C-vyLk0tnHw3VtMMgP7b-8" value="customer_id int NOT NULL" style="shape=partialRectangle;overflow=hidden;connectable=0;fillColor=none;top=0;left=0;bottom=0;right=0;align=left;spacingLeft=6;" parent="C-vyLk0tnHw3VtMMgP7b-6" vertex="1">
          <mxGeometry x="30" width="220" height="30" as="geometry" />
        </mxCell>
        <mxCell id="C-vyLk0tnHw3VtMMgP7b-9" value="" style="shape=partialRectangle;collapsible=0;dropTarget=0;pointerEvents=0;fillColor=none;points=[[0,0.5],[1,0.5]];portConstraint=eastwest;top=0;left=0;right=0;bottom=0;" parent="C-vyLk0tnHw3VtMMgP7b-2" vertex="1">
          <mxGeometry y="90" width="250" height="30" as="geometry" />
        </mxCell>
        <mxCell id="C-vyLk0tnHw3VtMMgP7b-10" value="" style="shape=partialRectangle;overflow=hidden;connectable=0;fillColor=none;top=0;left=0;bottom=0;right=0;" parent="C-vyLk0tnHw3VtMMgP7b-9" vertex="1">
          <mxGeometry width="30" height="30" as="geometry" />
        </mxCell>
        <mxCell id="C-vyLk0tnHw3VtMMgP7b-11" value="order_date date NOT NULL" style="shape=partialRectangle;overflow=hidden;connectable=0;fillColor=none;top=0;left=0;bottom=0;right=0;align=left;spacingLeft=6;" parent="C-vyLk0tnHw3VtMMgP7b-9" vertex="1">
          <mxGeometry x="30" width="220" height="30" as="geometry" />
        </mxCell>
        <mxCell id="C-vyLk0tnHw3VtMMgP7b-13" value="Shipments" style="shape=table;startSize=30;container=1;collapsible=1;childLayout=tableLayout;fixedRows=1;rowLines=0;fontStyle=1;align=center;resizeLast=1;" parent="1" vertex="1">
          <mxGeometry x="450" y="280" width="250" height="130" as="geometry" />
        </mxCell>
        <mxCell id="C-vyLk0tnHw3VtMMgP7b-14" value="" style="shape=partialRectangle;collapsible=0;dropTarget=0;pointerEvents=0;fillColor=none;points=[[0,0.5],[1,0.5]];portConstraint=eastwest;top=0;left=0;right=0;bottom=1;" parent="C-vyLk0tnHw3VtMMgP7b-13" vertex="1">
          <mxGeometry y="30" width="250" height="30" as="geometry" />
        </mxCell>
        <mxCell id="C-vyLk0tnHw3VtMMgP7b-15" value="PK" style="shape=partialRectangle;overflow=hidden;connectable=0;fillColor=none;top=0;left=0;bottom=0;right=0;fontStyle=1;" parent="C-vyLk0tnHw3VtMMgP7b-14" vertex="1">
          <mxGeometry width="30" height="30" as="geometry" />
        </mxCell>
        <mxCell id="C-vyLk0tnHw3VtMMgP7b-16" value="shipment_id int NOT NULL " style="shape=partialRectangle;overflow=hidden;connectable=0;fillColor=none;top=0;left=0;bottom=0;right=0;align=left;spacingLeft=6;fontStyle=5;" parent="C-vyLk0tnHw3VtMMgP7b-14" vertex="1">
          <mxGeometry x="30" width="220" height="30" as="geometry" />
        </mxCell>
        <mxCell id="C-vyLk0tnHw3VtMMgP7b-17" value="" style="shape=partialRectangle;collapsible=0;dropTarget=0;pointerEvents=0;fillColor=none;points=[[0,0.5],[1,0.5]];portConstraint=eastwest;top=0;left=0;right=0;bottom=0;" parent="C-vyLk0tnHw3VtMMgP7b-13" vertex="1">
          <mxGeometry y="60" width="250" height="30" as="geometry" />
        </mxCell>
        <mxCell id="C-vyLk0tnHw3VtMMgP7b-18" value="FK1" style="shape=partialRectangle;overflow=hidden;connectable=0;fillColor=none;top=0;left=0;bottom=0;right=0;" parent="C-vyLk0tnHw3VtMMgP7b-17" vertex="1">
          <mxGeometry width="30" height="30" as="geometry" />
        </mxCell>
        <mxCell id="C-vyLk0tnHw3VtMMgP7b-19" value="order_id int NOT NULL" style="shape=partialRectangle;overflow=hidden;connectable=0;fillColor=none;top=0;left=0;bottom=0;right=0;align=left;spacingLeft=6;" parent="C-vyLk0tnHw3VtMMgP7b-17" vertex="1">
          <mxGeometry x="30" width="220" height="30" as="geometry" />
        </mxCell>
        <mxCell id="C-vyLk0tnHw3VtMMgP7b-20" value="" style="shape=partialRectangle;collapsible=0;dropTarget=0;pointerEvents=0;fillColor=none;points=[[0,0.5],[1,0.5]];portConstraint=eastwest;top=0;left=0;right=0;bottom=0;" parent="C-vyLk0tnHw3VtMMgP7b-13" vertex="1">
          <mxGeometry y="90" width="250" height="30" as="geometry" />
        </mxCell>
        <mxCell id="C-vyLk0tnHw3VtMMgP7b-21" value="" style="shape=partialRectangle;overflow=hidden;connectable=0;fillColor=none;top=0;left=0;bottom=0;right=0;" parent="C-vyLk0tnHw3VtMMgP7b-20" vertex="1">
          <mxGeometry width="30" height="30" as="geometry" />
        </mxCell>
        <mxCell id="C-vyLk0tnHw3VtMMgP7b-22" value="shipment_date date NOT NULL" style="shape=partialRectangle;overflow=hidden;connectable=0;fillColor=none;top=0;left=0;bottom=0;right=0;align=left;spacingLeft=6;" parent="C-vyLk0tnHw3VtMMgP7b-20" vertex="1">
          <mxGeometry x="30" width="220" height="30" as="geometry" />
        </mxCell>
        <mxCell id="C-vyLk0tnHw3VtMMgP7b-23" value="Customers" style="shape=table;startSize=30;container=1;collapsible=1;childLayout=tableLayout;fixedRows=1;rowLines=0;fontStyle=1;align=center;resizeLast=1;" parent="1" vertex="1">
          <mxGeometry x="120" y="120" width="250" height="100" as="geometry" />
        </mxCell>
        <mxCell id="C-vyLk0tnHw3VtMMgP7b-24" value="" style="shape=partialRectangle;collapsible=0;dropTarget=0;pointerEvents=0;fillColor=none;points=[[0,0.5],[1,0.5]];portConstraint=eastwest;top=0;left=0;right=0;bottom=1;" parent="C-vyLk0tnHw3VtMMgP7b-23" vertex="1">
          <mxGeometry y="30" width="250" height="30" as="geometry" />
        </mxCell>
        <mxCell id="C-vyLk0tnHw3VtMMgP7b-25" value="PK" style="shape=partialRectangle;overflow=hidden;connectable=0;fillColor=none;top=0;left=0;bottom=0;right=0;fontStyle=1;" parent="C-vyLk0tnHw3VtMMgP7b-24" vertex="1">
          <mxGeometry width="30" height="30" as="geometry" />
        </mxCell>
        <mxCell id="C-vyLk0tnHw3VtMMgP7b-26" value="customer_id int NOT NULL " style="shape=partialRectangle;overflow=hidden;connectable=0;fillColor=none;top=0;left=0;bottom=0;right=0;align=left;spacingLeft=6;fontStyle=5;" parent="C-vyLk0tnHw3VtMMgP7b-24" vertex="1">
          <mxGeometry x="30" width="220" height="30" as="geometry" />
        </mxCell>
        <mxCell id="C-vyLk0tnHw3VtMMgP7b-27" value="" style="shape=partialRectangle;collapsible=0;dropTarget=0;pointerEvents=0;fillColor=none;points=[[0,0.5],[1,0.5]];portConstraint=eastwest;top=0;left=0;right=0;bottom=0;" parent="C-vyLk0tnHw3VtMMgP7b-23" vertex="1">
          <mxGeometry y="60" width="250" height="30" as="geometry" />
        </mxCell>
        <mxCell id="C-vyLk0tnHw3VtMMgP7b-28" value="" style="shape=partialRectangle;overflow=hidden;connectable=0;fillColor=none;top=0;left=0;bottom=0;right=0;" parent="C-vyLk0tnHw3VtMMgP7b-27" vertex="1">
          <mxGeometry width="30" height="30" as="geometry" />
        </mxCell>
        <mxCell id="C-vyLk0tnHw3VtMMgP7b-29" value="customer_name char(50) NOT NULL" style="shape=partialRectangle;overflow=hidden;connectable=0;fillColor=none;top=0;left=0;bottom=0;right=0;align=left;spacingLeft=6;" parent="C-vyLk0tnHw3VtMMgP7b-27" vertex="1">
          <mxGeometry x="30" width="220" height="30" as="geometry" />
        </mxCell>
        <mxCell id="jtM9J_BTz7ux8pr6srre-1" value="student" style="rounded=1;arcSize=10;whiteSpace=wrap;html=1;align=center;" vertex="1" parent="1">
          <mxGeometry x="600" y="786" width="100" height="40" as="geometry" />
        </mxCell>
        <mxCell id="jtM9J_BTz7ux8pr6srre-2" value="id" style="ellipse;whiteSpace=wrap;html=1;align=center;" vertex="1" parent="1">
          <mxGeometry x="480" y="716" width="100" height="40" as="geometry" />
        </mxCell>
        <mxCell id="jtM9J_BTz7ux8pr6srre-3" value="name" style="ellipse;whiteSpace=wrap;html=1;align=center;" vertex="1" parent="1">
          <mxGeometry x="600" y="716" width="100" height="40" as="geometry" />
        </mxCell>
        <mxCell id="jtM9J_BTz7ux8pr6srre-4" value="" style="endArrow=none;html=1;rounded=0;exitX=0.5;exitY=1;exitDx=0;exitDy=0;entryX=0.25;entryY=0;entryDx=0;entryDy=0;" edge="1" parent="1" source="jtM9J_BTz7ux8pr6srre-2" target="jtM9J_BTz7ux8pr6srre-1">
          <mxGeometry relative="1" as="geometry">
            <mxPoint x="610" y="666" as="sourcePoint" />
            <mxPoint x="770" y="666" as="targetPoint" />
          </mxGeometry>
        </mxCell>
        <mxCell id="jtM9J_BTz7ux8pr6srre-5" value="gender" style="ellipse;whiteSpace=wrap;html=1;align=center;" vertex="1" parent="1">
          <mxGeometry x="710" y="716" width="100" height="40" as="geometry" />
        </mxCell>
        <mxCell id="jtM9J_BTz7ux8pr6srre-6" value="birth" style="ellipse;whiteSpace=wrap;html=1;align=center;" vertex="1" parent="1">
          <mxGeometry x="520" y="846" width="100" height="40" as="geometry" />
        </mxCell>
        <mxCell id="jtM9J_BTz7ux8pr6srre-7" value="department" style="ellipse;whiteSpace=wrap;html=1;align=center;" vertex="1" parent="1">
          <mxGeometry x="690" y="846" width="100" height="40" as="geometry" />
        </mxCell>
        <mxCell id="jtM9J_BTz7ux8pr6srre-8" value="department" style="rounded=1;arcSize=10;whiteSpace=wrap;html=1;align=center;" vertex="1" parent="1">
          <mxGeometry x="1157" y="784" width="100" height="40" as="geometry" />
        </mxCell>
        <mxCell id="jtM9J_BTz7ux8pr6srre-9" value="id" style="ellipse;whiteSpace=wrap;html=1;align=center;" vertex="1" parent="1">
          <mxGeometry x="1082" y="714" width="100" height="40" as="geometry" />
        </mxCell>
        <mxCell id="jtM9J_BTz7ux8pr6srre-10" value="name" style="ellipse;whiteSpace=wrap;html=1;align=center;" vertex="1" parent="1">
          <mxGeometry x="1222" y="714" width="100" height="40" as="geometry" />
        </mxCell>
        <mxCell id="jtM9J_BTz7ux8pr6srre-11" value="course" style="rounded=1;arcSize=10;whiteSpace=wrap;html=1;align=center;" vertex="1" parent="1">
          <mxGeometry x="600" y="1119" width="100" height="40" as="geometry" />
        </mxCell>
        <mxCell id="jtM9J_BTz7ux8pr6srre-12" value="id" style="ellipse;whiteSpace=wrap;html=1;align=center;" vertex="1" parent="1">
          <mxGeometry x="483.5" y="1057" width="100" height="40" as="geometry" />
        </mxCell>
        <mxCell id="jtM9J_BTz7ux8pr6srre-13" value="name" style="ellipse;whiteSpace=wrap;html=1;align=center;" vertex="1" parent="1">
          <mxGeometry x="724.5" y="1195" width="100" height="40" as="geometry" />
        </mxCell>
        <mxCell id="jtM9J_BTz7ux8pr6srre-14" value="type" style="ellipse;whiteSpace=wrap;html=1;align=center;" vertex="1" parent="1">
          <mxGeometry x="719.5" y="1057" width="100" height="40" as="geometry" />
        </mxCell>
        <mxCell id="jtM9J_BTz7ux8pr6srre-15" value="credit" style="ellipse;whiteSpace=wrap;html=1;align=center;" vertex="1" parent="1">
          <mxGeometry x="486" y="1195" width="100" height="40" as="geometry" />
        </mxCell>
        <mxCell id="jtM9J_BTz7ux8pr6srre-16" value="teacher" style="rounded=1;arcSize=10;whiteSpace=wrap;html=1;align=center;" vertex="1" parent="1">
          <mxGeometry x="1158" y="1114" width="100" height="40" as="geometry" />
        </mxCell>
        <mxCell id="jtM9J_BTz7ux8pr6srre-17" value="id" style="ellipse;whiteSpace=wrap;html=1;align=center;" vertex="1" parent="1">
          <mxGeometry x="1063" y="1057" width="100" height="40" as="geometry" />
        </mxCell>
        <mxCell id="jtM9J_BTz7ux8pr6srre-18" value="name" style="ellipse;whiteSpace=wrap;html=1;align=center;" vertex="1" parent="1">
          <mxGeometry x="1273" y="1181" width="100" height="40" as="geometry" />
        </mxCell>
        <mxCell id="jtM9J_BTz7ux8pr6srre-19" value="profession" style="ellipse;whiteSpace=wrap;html=1;align=center;" vertex="1" parent="1">
          <mxGeometry x="1264" y="1054" width="100" height="40" as="geometry" />
        </mxCell>
        <mxCell id="jtM9J_BTz7ux8pr6srre-20" value="department" style="ellipse;whiteSpace=wrap;html=1;align=center;" vertex="1" parent="1">
          <mxGeometry x="1072" y="1181" width="100" height="40" as="geometry" />
        </mxCell>
        <mxCell id="jtM9J_BTz7ux8pr6srre-21" value="" style="endArrow=none;html=1;rounded=0;exitX=0.5;exitY=1;exitDx=0;exitDy=0;entryX=0.5;entryY=0;entryDx=0;entryDy=0;" edge="1" parent="1" source="jtM9J_BTz7ux8pr6srre-3" target="jtM9J_BTz7ux8pr6srre-1">
          <mxGeometry relative="1" as="geometry">
            <mxPoint x="540.0000000000002" y="765.9999999999998" as="sourcePoint" />
            <mxPoint x="635.0000000000002" y="795.9999999999998" as="targetPoint" />
          </mxGeometry>
        </mxCell>
        <mxCell id="jtM9J_BTz7ux8pr6srre-22" value="" style="endArrow=none;html=1;rounded=0;exitX=0.5;exitY=1;exitDx=0;exitDy=0;entryX=0.75;entryY=0;entryDx=0;entryDy=0;" edge="1" parent="1" source="jtM9J_BTz7ux8pr6srre-5" target="jtM9J_BTz7ux8pr6srre-1">
          <mxGeometry relative="1" as="geometry">
            <mxPoint x="660" y="765.9999999999998" as="sourcePoint" />
            <mxPoint x="660" y="795.9999999999998" as="targetPoint" />
          </mxGeometry>
        </mxCell>
        <mxCell id="jtM9J_BTz7ux8pr6srre-23" value="" style="endArrow=none;html=1;rounded=0;exitX=0.25;exitY=1;exitDx=0;exitDy=0;entryX=0.5;entryY=0;entryDx=0;entryDy=0;" edge="1" parent="1" source="jtM9J_BTz7ux8pr6srre-1" target="jtM9J_BTz7ux8pr6srre-6">
          <mxGeometry relative="1" as="geometry">
            <mxPoint x="670" y="775.9999999999998" as="sourcePoint" />
            <mxPoint x="670" y="805.9999999999998" as="targetPoint" />
          </mxGeometry>
        </mxCell>
        <mxCell id="jtM9J_BTz7ux8pr6srre-24" value="" style="endArrow=none;html=1;rounded=0;exitX=0.65;exitY=1;exitDx=0;exitDy=0;entryX=0.5;entryY=0;entryDx=0;entryDy=0;exitPerimeter=0;" edge="1" parent="1" source="jtM9J_BTz7ux8pr6srre-1" target="jtM9J_BTz7ux8pr6srre-7">
          <mxGeometry relative="1" as="geometry">
            <mxPoint x="680" y="785.9999999999998" as="sourcePoint" />
            <mxPoint x="680" y="815.9999999999998" as="targetPoint" />
          </mxGeometry>
        </mxCell>
        <mxCell id="jtM9J_BTz7ux8pr6srre-25" value="" style="endArrow=none;html=1;rounded=0;exitX=0.5;exitY=1;exitDx=0;exitDy=0;entryX=0.25;entryY=0;entryDx=0;entryDy=0;" edge="1" parent="1" source="jtM9J_BTz7ux8pr6srre-9" target="jtM9J_BTz7ux8pr6srre-8">
          <mxGeometry relative="1" as="geometry">
            <mxPoint x="1108.0000000000002" y="776.9999999999998" as="sourcePoint" />
            <mxPoint x="1203.0000000000002" y="806.9999999999998" as="targetPoint" />
          </mxGeometry>
        </mxCell>
        <mxCell id="jtM9J_BTz7ux8pr6srre-26" value="" style="endArrow=none;html=1;rounded=0;exitX=0.5;exitY=1;exitDx=0;exitDy=0;entryX=0.75;entryY=0;entryDx=0;entryDy=0;" edge="1" parent="1" source="jtM9J_BTz7ux8pr6srre-10" target="jtM9J_BTz7ux8pr6srre-8">
          <mxGeometry relative="1" as="geometry">
            <mxPoint x="642.0000000000002" y="771.9999999999998" as="sourcePoint" />
            <mxPoint x="737.0000000000002" y="801.9999999999998" as="targetPoint" />
          </mxGeometry>
        </mxCell>
        <mxCell id="jtM9J_BTz7ux8pr6srre-27" value="" style="endArrow=none;html=1;rounded=0;exitX=0.5;exitY=1;exitDx=0;exitDy=0;entryX=0.25;entryY=0;entryDx=0;entryDy=0;" edge="1" parent="1" source="jtM9J_BTz7ux8pr6srre-12" target="jtM9J_BTz7ux8pr6srre-11">
          <mxGeometry relative="1" as="geometry">
            <mxPoint x="559.5000000000002" y="906.9999999999998" as="sourcePoint" />
            <mxPoint x="654.5000000000002" y="936.9999999999998" as="targetPoint" />
          </mxGeometry>
        </mxCell>
        <mxCell id="jtM9J_BTz7ux8pr6srre-28" value="" style="endArrow=none;html=1;rounded=0;exitX=0.5;exitY=0;exitDx=0;exitDy=0;entryX=0.75;entryY=1;entryDx=0;entryDy=0;" edge="1" parent="1" source="jtM9J_BTz7ux8pr6srre-13" target="jtM9J_BTz7ux8pr6srre-11">
          <mxGeometry relative="1" as="geometry">
            <mxPoint x="569.5000000000002" y="916.9999999999998" as="sourcePoint" />
            <mxPoint x="664.5000000000002" y="946.9999999999998" as="targetPoint" />
          </mxGeometry>
        </mxCell>
        <mxCell id="jtM9J_BTz7ux8pr6srre-29" value="" style="endArrow=none;html=1;rounded=0;exitX=0.5;exitY=1;exitDx=0;exitDy=0;entryX=0.75;entryY=0;entryDx=0;entryDy=0;" edge="1" parent="1" source="jtM9J_BTz7ux8pr6srre-14" target="jtM9J_BTz7ux8pr6srre-11">
          <mxGeometry relative="1" as="geometry">
            <mxPoint x="579.5000000000002" y="926.9999999999998" as="sourcePoint" />
            <mxPoint x="674.5000000000002" y="956.9999999999998" as="targetPoint" />
          </mxGeometry>
        </mxCell>
        <mxCell id="jtM9J_BTz7ux8pr6srre-30" value="" style="endArrow=none;html=1;rounded=0;exitX=0.25;exitY=1;exitDx=0;exitDy=0;entryX=0.5;entryY=0;entryDx=0;entryDy=0;" edge="1" parent="1" source="jtM9J_BTz7ux8pr6srre-11" target="jtM9J_BTz7ux8pr6srre-15">
          <mxGeometry relative="1" as="geometry">
            <mxPoint x="589.5000000000002" y="936.9999999999998" as="sourcePoint" />
            <mxPoint x="684.5000000000002" y="966.9999999999998" as="targetPoint" />
          </mxGeometry>
        </mxCell>
        <mxCell id="jtM9J_BTz7ux8pr6srre-31" value="" style="endArrow=none;html=1;rounded=0;exitX=0.5;exitY=1;exitDx=0;exitDy=0;entryX=0.25;entryY=0;entryDx=0;entryDy=0;" edge="1" parent="1" source="jtM9J_BTz7ux8pr6srre-17" target="jtM9J_BTz7ux8pr6srre-16">
          <mxGeometry relative="1" as="geometry">
            <mxPoint x="619.0000000000002" y="943.9999999999998" as="sourcePoint" />
            <mxPoint x="714.0000000000002" y="973.9999999999998" as="targetPoint" />
          </mxGeometry>
        </mxCell>
        <mxCell id="jtM9J_BTz7ux8pr6srre-32" value="" style="endArrow=none;html=1;rounded=0;exitX=0.5;exitY=0;exitDx=0;exitDy=0;entryX=0.75;entryY=1;entryDx=0;entryDy=0;" edge="1" parent="1" source="jtM9J_BTz7ux8pr6srre-18" target="jtM9J_BTz7ux8pr6srre-16">
          <mxGeometry relative="1" as="geometry">
            <mxPoint x="629.0000000000002" y="953.9999999999998" as="sourcePoint" />
            <mxPoint x="724.0000000000002" y="983.9999999999998" as="targetPoint" />
          </mxGeometry>
        </mxCell>
        <mxCell id="jtM9J_BTz7ux8pr6srre-33" value="" style="endArrow=none;html=1;rounded=0;exitX=0.5;exitY=1;exitDx=0;exitDy=0;entryX=0.75;entryY=0;entryDx=0;entryDy=0;" edge="1" parent="1" source="jtM9J_BTz7ux8pr6srre-19" target="jtM9J_BTz7ux8pr6srre-16">
          <mxGeometry relative="1" as="geometry">
            <mxPoint x="639.0000000000002" y="963.9999999999998" as="sourcePoint" />
            <mxPoint x="734.0000000000002" y="993.9999999999998" as="targetPoint" />
          </mxGeometry>
        </mxCell>
        <mxCell id="jtM9J_BTz7ux8pr6srre-34" value="" style="endArrow=none;html=1;rounded=0;exitX=0.25;exitY=1;exitDx=0;exitDy=0;entryX=0.5;entryY=0;entryDx=0;entryDy=0;" edge="1" parent="1" source="jtM9J_BTz7ux8pr6srre-16" target="jtM9J_BTz7ux8pr6srre-20">
          <mxGeometry relative="1" as="geometry">
            <mxPoint x="649.0000000000002" y="973.9999999999998" as="sourcePoint" />
            <mxPoint x="744.0000000000002" y="1003.9999999999998" as="targetPoint" />
          </mxGeometry>
        </mxCell>
        <mxCell id="jtM9J_BTz7ux8pr6srre-35" value="select" style="shape=rhombus;perimeter=rhombusPerimeter;whiteSpace=wrap;html=1;align=center;direction=south;" vertex="1" parent="1">
          <mxGeometry x="616" y="933" width="68" height="76" as="geometry" />
        </mxCell>
        <mxCell id="jtM9J_BTz7ux8pr6srre-36" value="belong to" style="shape=rhombus;perimeter=rhombusPerimeter;whiteSpace=wrap;html=1;align=center;direction=east;" vertex="1" parent="1">
          <mxGeometry x="914" y="770" width="76" height="68" as="geometry" />
        </mxCell>
        <mxCell id="jtM9J_BTz7ux8pr6srre-38" value="belong to" style="shape=rhombus;perimeter=rhombusPerimeter;whiteSpace=wrap;html=1;align=center;direction=east;" vertex="1" parent="1">
          <mxGeometry x="1170" y="909" width="76" height="68" as="geometry" />
        </mxCell>
        <mxCell id="jtM9J_BTz7ux8pr6srre-39" value="teach" style="shape=rhombus;perimeter=rhombusPerimeter;whiteSpace=wrap;html=1;align=center;direction=west;" vertex="1" parent="1">
          <mxGeometry x="916" y="1102" width="76" height="68" as="geometry" />
        </mxCell>
        <mxCell id="jtM9J_BTz7ux8pr6srre-43" value="" style="endArrow=none;html=1;rounded=0;entryX=0.5;entryY=1;entryDx=0;entryDy=0;exitX=0;exitY=0.5;exitDx=0;exitDy=0;" edge="1" parent="1" source="jtM9J_BTz7ux8pr6srre-35" target="jtM9J_BTz7ux8pr6srre-1">
          <mxGeometry relative="1" as="geometry">
            <mxPoint x="476" y="962" as="sourcePoint" />
            <mxPoint x="663" y="876" as="targetPoint" />
          </mxGeometry>
        </mxCell>
        <mxCell id="jtM9J_BTz7ux8pr6srre-44" value="M" style="resizable=0;html=1;align=right;verticalAlign=bottom;" connectable="0" vertex="1" parent="jtM9J_BTz7ux8pr6srre-43">
          <mxGeometry x="1" relative="1" as="geometry">
            <mxPoint x="-3" y="26" as="offset" />
          </mxGeometry>
        </mxCell>
        <mxCell id="jtM9J_BTz7ux8pr6srre-45" value="" style="endArrow=none;html=1;rounded=0;entryX=1;entryY=0.5;entryDx=0;entryDy=0;exitX=0.5;exitY=0;exitDx=0;exitDy=0;" edge="1" parent="1" source="jtM9J_BTz7ux8pr6srre-11" target="jtM9J_BTz7ux8pr6srre-35">
          <mxGeometry relative="1" as="geometry">
            <mxPoint x="681" y="1109.0000000000002" as="sourcePoint" />
            <mxPoint x="677" y="1001.9999999999998" as="targetPoint" />
          </mxGeometry>
        </mxCell>
        <mxCell id="jtM9J_BTz7ux8pr6srre-46" value="N" style="resizable=0;html=1;align=right;verticalAlign=bottom;" connectable="0" vertex="1" parent="jtM9J_BTz7ux8pr6srre-45">
          <mxGeometry x="1" relative="1" as="geometry">
            <mxPoint x="-7" y="105" as="offset" />
          </mxGeometry>
        </mxCell>
        <mxCell id="jtM9J_BTz7ux8pr6srre-47" value="" style="endArrow=none;html=1;rounded=0;entryX=1;entryY=0.5;entryDx=0;entryDy=0;exitX=1;exitY=0.5;exitDx=0;exitDy=0;" edge="1" parent="1" source="jtM9J_BTz7ux8pr6srre-39" target="jtM9J_BTz7ux8pr6srre-11">
          <mxGeometry relative="1" as="geometry">
            <mxPoint x="950.5" y="1114.0000000000002" as="sourcePoint" />
            <mxPoint x="734" y="1117" as="targetPoint" />
          </mxGeometry>
        </mxCell>
        <mxCell id="jtM9J_BTz7ux8pr6srre-48" value="N" style="resizable=0;html=1;align=right;verticalAlign=bottom;" connectable="0" vertex="1" parent="jtM9J_BTz7ux8pr6srre-47">
          <mxGeometry x="1" relative="1" as="geometry">
            <mxPoint x="22" as="offset" />
          </mxGeometry>
        </mxCell>
        <mxCell id="jtM9J_BTz7ux8pr6srre-49" value="" style="endArrow=none;html=1;rounded=0;entryX=0;entryY=0.5;entryDx=0;entryDy=0;exitX=0;exitY=0.5;exitDx=0;exitDy=0;" edge="1" parent="1" source="jtM9J_BTz7ux8pr6srre-39" target="jtM9J_BTz7ux8pr6srre-16">
          <mxGeometry relative="1" as="geometry">
            <mxPoint x="1119.5" y="1175.0000000000002" as="sourcePoint" />
            <mxPoint x="903" y="1178" as="targetPoint" />
          </mxGeometry>
        </mxCell>
        <mxCell id="jtM9J_BTz7ux8pr6srre-50" value="1" style="resizable=0;html=1;align=right;verticalAlign=bottom;" connectable="0" vertex="1" parent="jtM9J_BTz7ux8pr6srre-49">
          <mxGeometry x="1" relative="1" as="geometry">
            <mxPoint x="-9" y="-2" as="offset" />
          </mxGeometry>
        </mxCell>
        <mxCell id="jtM9J_BTz7ux8pr6srre-51" value="" style="endArrow=none;html=1;rounded=0;entryX=0.5;entryY=1;entryDx=0;entryDy=0;exitX=0.5;exitY=0;exitDx=0;exitDy=0;" edge="1" parent="1" source="jtM9J_BTz7ux8pr6srre-38" target="jtM9J_BTz7ux8pr6srre-8">
          <mxGeometry relative="1" as="geometry">
            <mxPoint x="1151.5" y="927.0000000000002" as="sourcePoint" />
            <mxPoint x="935" y="930" as="targetPoint" />
          </mxGeometry>
        </mxCell>
        <mxCell id="jtM9J_BTz7ux8pr6srre-52" value="1" style="resizable=0;html=1;align=right;verticalAlign=bottom;" connectable="0" vertex="1" parent="jtM9J_BTz7ux8pr6srre-51">
          <mxGeometry x="1" relative="1" as="geometry">
            <mxPoint x="15" y="22" as="offset" />
          </mxGeometry>
        </mxCell>
        <mxCell id="jtM9J_BTz7ux8pr6srre-53" value="" style="endArrow=none;html=1;rounded=0;entryX=0.5;entryY=0;entryDx=0;entryDy=0;exitX=0.5;exitY=1;exitDx=0;exitDy=0;" edge="1" parent="1" source="jtM9J_BTz7ux8pr6srre-38" target="jtM9J_BTz7ux8pr6srre-16">
          <mxGeometry relative="1" as="geometry">
            <mxPoint x="946" y="1164.0000000000002" as="sourcePoint" />
            <mxPoint x="729.5" y="1167" as="targetPoint" />
          </mxGeometry>
        </mxCell>
        <mxCell id="jtM9J_BTz7ux8pr6srre-54" value="N" style="resizable=0;html=1;align=right;verticalAlign=bottom;" connectable="0" vertex="1" parent="jtM9J_BTz7ux8pr6srre-53">
          <mxGeometry x="1" relative="1" as="geometry">
            <mxPoint x="16" y="-4" as="offset" />
          </mxGeometry>
        </mxCell>
        <mxCell id="jtM9J_BTz7ux8pr6srre-55" value="" style="endArrow=none;html=1;rounded=0;entryX=1;entryY=0.5;entryDx=0;entryDy=0;exitX=0;exitY=0.5;exitDx=0;exitDy=0;" edge="1" parent="1" source="jtM9J_BTz7ux8pr6srre-36" target="jtM9J_BTz7ux8pr6srre-1">
          <mxGeometry relative="1" as="geometry">
            <mxPoint x="938" y="884" as="sourcePoint" />
            <mxPoint x="739.5" y="1177" as="targetPoint" />
          </mxGeometry>
        </mxCell>
        <mxCell id="jtM9J_BTz7ux8pr6srre-56" value="N" style="resizable=0;html=1;align=right;verticalAlign=bottom;" connectable="0" vertex="1" parent="jtM9J_BTz7ux8pr6srre-55">
          <mxGeometry x="1" relative="1" as="geometry">
            <mxPoint x="22" as="offset" />
          </mxGeometry>
        </mxCell>
        <mxCell id="jtM9J_BTz7ux8pr6srre-57" value="" style="endArrow=none;html=1;rounded=0;entryX=0;entryY=0.5;entryDx=0;entryDy=0;exitX=1;exitY=0.5;exitDx=0;exitDy=0;" edge="1" parent="1" source="jtM9J_BTz7ux8pr6srre-36" target="jtM9J_BTz7ux8pr6srre-8">
          <mxGeometry relative="1" as="geometry">
            <mxPoint x="989" y="924" as="sourcePoint" />
            <mxPoint x="749.5" y="1187" as="targetPoint" />
          </mxGeometry>
        </mxCell>
        <mxCell id="jtM9J_BTz7ux8pr6srre-58" value="1" style="resizable=0;html=1;align=right;verticalAlign=bottom;" connectable="0" vertex="1" parent="jtM9J_BTz7ux8pr6srre-57">
          <mxGeometry x="1" relative="1" as="geometry">
            <mxPoint x="-9" y="-4" as="offset" />
          </mxGeometry>
        </mxCell>
        <mxCell id="jtM9J_BTz7ux8pr6srre-59" value="grade" style="ellipse;whiteSpace=wrap;html=1;align=center;" vertex="1" parent="1">
          <mxGeometry x="443" y="951" width="100" height="40" as="geometry" />
        </mxCell>
        <mxCell id="jtM9J_BTz7ux8pr6srre-60" value="" style="endArrow=none;html=1;rounded=0;exitX=1;exitY=0.5;exitDx=0;exitDy=0;entryX=0.5;entryY=1;entryDx=0;entryDy=0;" edge="1" parent="1" source="jtM9J_BTz7ux8pr6srre-59" target="jtM9J_BTz7ux8pr6srre-35">
          <mxGeometry relative="1" as="geometry">
            <mxPoint x="540.0000000000002" y="765.9999999999998" as="sourcePoint" />
            <mxPoint x="635.0000000000002" y="795.9999999999998" as="targetPoint" />
          </mxGeometry>
        </mxCell>
      </root>
    </mxGraphModel>
  </diagram>
</mxfile>
